<svg width="34" height="32" viewBox="0 0 34 32" fill="none" xmlns="http://www.w3.org/2000/svg">
<path d="M12.7454 29.3334L12.1943 25.0668C11.8957 24.9556 11.6144 24.8223 11.3503 24.6667C11.0862 24.5112 10.8278 24.3445 10.5752 24.1667L6.47584 25.8334L2.68652 19.5001L6.2347 16.9001C6.21173 16.7445 6.20025 16.5945 6.20025 16.4501V15.5501C6.20025 15.4056 6.21173 15.2556 6.2347 15.1001L2.68652 12.5001L6.47584 6.16675L10.5752 7.83341C10.8278 7.65564 11.0919 7.48897 11.3675 7.33341C11.6431 7.17786 11.9187 7.04453 12.1943 6.93341L12.7454 2.66675H20.3241L20.8752 6.93341C21.1738 7.04453 21.4551 7.17786 21.7192 7.33341C21.9833 7.48897 22.2417 7.65564 22.4943 7.83341L26.5937 6.16675L30.383 12.5001L26.8348 15.1001C26.8578 15.2556 26.8692 15.4056 26.8692 15.5501V16.4501C26.8692 16.5945 26.8463 16.7445 26.8003 16.9001L30.3485 19.5001L26.5592 25.8334L22.4943 24.1667C22.2417 24.3445 21.9776 24.5112 21.702 24.6667C21.4264 24.8223 21.1508 24.9556 20.8752 25.0668L20.3241 29.3334H12.7454ZM16.6036 20.6667C17.9356 20.6667 19.0724 20.2112 20.014 19.3001C20.9556 18.389 21.4264 17.289 21.4264 16.0001C21.4264 14.7112 20.9556 13.6112 20.014 12.7001C19.0724 11.789 17.9356 11.3334 16.6036 11.3334C15.2487 11.3334 14.1061 11.789 13.176 12.7001C12.2459 13.6112 11.7809 14.7112 11.7809 16.0001C11.7809 17.289 12.2459 18.389 13.176 19.3001C14.1061 20.2112 15.2487 20.6667 16.6036 20.6667Z" fill="white"/>
</svg>
