<svg width="40" height="40" viewBox="0 0 40 40" fill="none" xmlns="http://www.w3.org/2000/svg">
<path d="M23.75 21.5C23.75 22.2417 23.5301 22.9667 23.118 23.5834C22.706 24.2001 22.1203 24.6807 21.4351 24.9645C20.7498 25.2484 19.9958 25.3226 19.2684 25.1779C18.541 25.0333 17.8728 24.6761 17.3484 24.1517C16.8239 23.6272 16.4668 22.959 16.3221 22.2316C16.1774 21.5042 16.2516 20.7502 16.5355 20.0649C16.8193 19.3797 17.2999 18.794 17.9166 18.382C18.5333 17.9699 19.2583 17.75 20 17.75C20.9946 17.75 21.9484 18.1451 22.6517 18.8483C23.3549 19.5516 23.75 20.5054 23.75 21.5ZM14 13.25C13.4067 13.25 12.8266 13.4259 12.3333 13.7556C11.8399 14.0852 11.4554 14.5538 11.2284 15.1019C11.0013 15.6501 10.9419 16.2533 11.0576 16.8353C11.1734 17.4172 11.4591 17.9518 11.8787 18.3713C12.2982 18.7909 12.8328 19.0766 13.4147 19.1924C13.9967 19.3081 14.5999 19.2487 15.1481 19.0216C15.6962 18.7946 16.1648 18.4101 16.4944 17.9167C16.8241 17.4234 17 16.8433 17 16.25C17 15.4544 16.6839 14.6913 16.1213 14.1287C15.5587 13.5661 14.7957 13.25 14 13.25ZM26 13.25C25.4067 13.25 24.8266 13.4259 24.3333 13.7556C23.8399 14.0852 23.4554 14.5538 23.2284 15.1019C23.0013 15.6501 22.9419 16.2533 23.0576 16.8353C23.1734 17.4172 23.4591 17.9518 23.8787 18.3713C24.2982 18.7909 24.8328 19.0766 25.4147 19.1924C25.9967 19.3081 26.5999 19.2487 27.1481 19.0216C27.6962 18.7946 28.1648 18.4101 28.4944 17.9167C28.8241 17.4234 29 16.8433 29 16.25C29 15.4544 28.6839 14.6913 28.1213 14.1287C27.5587 13.5661 26.7957 13.25 26 13.25Z" fill="black" fill-opacity="0.04"/>
<path d="M30.9503 22.0999C30.8715 22.159 30.7818 22.202 30.6864 22.2265C30.591 22.2509 30.4917 22.2563 30.3942 22.2424C30.2967 22.2285 30.2029 22.1955 30.1182 22.1453C30.0334 22.0951 29.9594 22.0287 29.9003 21.9499C29.4482 21.3423 28.8598 20.8493 28.1824 20.5106C27.5051 20.1719 26.7576 19.997 26.0003 19.9999C25.8014 19.9999 25.6106 19.9209 25.47 19.7803C25.3293 19.6396 25.2503 19.4488 25.2503 19.2499C25.2503 19.051 25.3293 18.8602 25.47 18.7196C25.6106 18.5789 25.8014 18.4999 26.0003 18.4999C26.4211 18.4999 26.8335 18.3818 27.1906 18.1592C27.5477 17.9365 27.8351 17.6182 28.0204 17.2403C28.2056 16.8625 28.2812 16.4403 28.2385 16.0216C28.1958 15.603 28.0365 15.2047 27.7788 14.872C27.5211 14.5393 27.1753 14.2856 26.7806 14.1396C26.3859 13.9937 25.9582 13.9613 25.546 14.0462C25.1338 14.1311 24.7538 14.33 24.4489 14.6201C24.1441 14.9102 23.9267 15.28 23.8215 15.6874C23.7969 15.7828 23.7537 15.8725 23.6945 15.9512C23.6352 16.0299 23.561 16.0962 23.4761 16.1463C23.3913 16.1963 23.2974 16.2292 23.1998 16.2429C23.1022 16.2567 23.0029 16.2511 22.9075 16.2265C22.8121 16.2019 22.7224 16.1587 22.6437 16.0994C22.565 16.0402 22.4987 15.966 22.4486 15.8811C22.3986 15.7962 22.3657 15.7023 22.352 15.6047C22.3382 15.5072 22.3438 15.4078 22.3684 15.3124C22.5144 14.7474 22.7903 14.2243 23.1741 13.7846C23.5579 13.345 24.039 13.001 24.5791 12.78C25.1192 12.559 25.7034 12.4671 26.2853 12.5117C26.8672 12.5562 27.4307 12.7359 27.9309 13.0366C28.431 13.3372 28.8542 13.7504 29.1666 14.2433C29.479 14.7362 29.672 15.2953 29.7303 15.8759C29.7887 16.4566 29.7107 17.0429 29.5026 17.5881C29.2944 18.1333 28.9619 18.6224 28.5315 19.0165C29.5514 19.458 30.4379 20.1587 31.1031 21.049C31.1622 21.128 31.2051 21.2179 31.2294 21.3135C31.2537 21.4091 31.2589 21.5085 31.2447 21.6062C31.2305 21.7038 31.1972 21.7976 31.1467 21.8824C31.0962 21.9671 31.0294 22.041 30.9503 22.0999ZM25.899 27.8749C25.9514 27.9603 25.9861 28.0553 26.0012 28.1543C26.0162 28.2533 26.0113 28.3544 25.9867 28.4514C25.962 28.5485 25.9182 28.6397 25.8578 28.7195C25.7974 28.7994 25.7215 28.8664 25.6348 28.9165C25.5481 28.9666 25.4522 28.9988 25.3528 29.0112C25.2535 29.0237 25.1526 29.0161 25.0562 28.9889C24.9598 28.9617 24.8698 28.9155 24.7916 28.853C24.7133 28.7905 24.6484 28.7129 24.6006 28.6249C24.1281 27.8251 23.4552 27.1624 22.6484 26.7019C21.8416 26.2415 20.9287 25.9993 19.9998 25.9993C19.0709 25.9993 18.158 26.2415 17.3512 26.7019C16.5444 27.1624 15.8715 27.8251 15.399 28.6249C15.3521 28.7146 15.2876 28.7938 15.2093 28.8578C15.131 28.9219 15.0406 28.9694 14.9434 28.9976C14.8463 29.0258 14.7444 29.034 14.644 29.0218C14.5436 29.0096 14.4467 28.9772 14.3591 28.9266C14.2716 28.876 14.1951 28.8082 14.1344 28.7272C14.0738 28.6463 14.0301 28.554 14.006 28.4557C13.9819 28.3575 13.978 28.2554 13.9944 28.1556C14.0108 28.0557 14.0473 27.9603 14.1015 27.8749C14.8287 26.6256 15.9373 25.6424 17.2647 25.0699C16.5178 24.4981 15.9689 23.7066 15.6951 22.8066C15.4213 21.9067 15.4364 20.9436 15.7383 20.0527C16.0402 19.1618 16.6137 18.3879 17.3782 17.8398C18.1426 17.2917 19.0596 16.9969 20.0003 16.9969C20.9409 16.9969 21.8579 17.2917 22.6224 17.8398C23.3869 18.3879 23.9603 19.1618 24.2622 20.0527C24.5641 20.9436 24.5792 21.9067 24.3055 22.8066C24.0317 23.7066 23.4828 24.4981 22.7359 25.0699C24.0632 25.6424 25.1719 26.6256 25.899 27.8749ZM20.0003 24.4999C20.5936 24.4999 21.1736 24.324 21.667 23.9943C22.1603 23.6647 22.5449 23.1962 22.7719 22.648C22.999 22.0998 23.0584 21.4966 22.9426 20.9147C22.8269 20.3327 22.5412 19.7982 22.1216 19.3786C21.702 18.959 21.1675 18.6733 20.5856 18.5576C20.0036 18.4418 19.4004 18.5012 18.8522 18.7283C18.3041 18.9553 17.8355 19.3399 17.5059 19.8332C17.1762 20.3266 17.0003 20.9066 17.0003 21.4999C17.0003 22.2956 17.3164 23.0586 17.879 23.6212C18.4416 24.1839 19.2046 24.4999 20.0003 24.4999ZM14.7503 19.2499C14.7503 19.051 14.6713 18.8602 14.5306 18.7196C14.39 18.5789 14.1992 18.4999 14.0003 18.4999C13.5795 18.4999 13.1671 18.3818 12.81 18.1592C12.4529 17.9365 12.1654 17.6182 11.9802 17.2403C11.795 16.8625 11.7194 16.4403 11.7621 16.0216C11.8048 15.603 11.964 15.2047 12.2218 14.872C12.4795 14.5393 12.8253 14.2856 13.22 14.1396C13.6147 13.9937 14.0424 13.9613 14.4546 14.0462C14.8667 14.1311 15.2468 14.33 15.5516 14.6201C15.8565 14.9102 16.0738 15.28 16.179 15.6874C16.2288 15.8801 16.353 16.0452 16.5244 16.1463C16.6958 16.2474 16.9004 16.2762 17.0931 16.2265C17.2858 16.1768 17.4508 16.0525 17.5519 15.8811C17.653 15.7097 17.6819 15.5051 17.6322 15.3124C17.4861 14.7474 17.2103 14.2243 16.8265 13.7846C16.4427 13.345 15.9616 13.001 15.4215 12.78C14.8814 12.559 14.2971 12.4671 13.7152 12.5117C13.1334 12.5562 12.5699 12.7359 12.0697 13.0366C11.5695 13.3372 11.1464 13.7504 10.834 14.2433C10.5216 14.7362 10.3286 15.2953 10.2702 15.8759C10.2119 16.4566 10.2899 17.0429 10.498 17.5881C10.7061 18.1333 11.0386 18.6224 11.469 19.0165C10.4502 19.4585 9.5647 20.1591 8.90028 21.049C8.78081 21.2081 8.72945 21.4082 8.75749 21.6052C8.78553 21.8022 8.89069 21.98 9.04982 22.0995C9.20895 22.2189 9.40902 22.2703 9.60602 22.2422C9.80302 22.2142 9.98081 22.1091 10.1003 21.9499C10.5523 21.3423 11.1407 20.8493 11.8181 20.5106C12.4955 20.1719 13.2429 19.997 14.0003 19.9999C14.1992 19.9999 14.39 19.9209 14.5306 19.7803C14.6713 19.6396 14.7503 19.4488 14.7503 19.2499Z" fill="white"/>
</svg>
